# xmcd
#
# Track frame offsets:
#	150
#	21720
#	44466
#	68016
#	94382
#	111234
#	136685
#	157570
#	189415
#	214774
#	234784
#	253469
#	276283
#	298646
#
# Disc length: 4267 seconds
#
# Revision: 0
# Processed by: cddbd v1.5.2PL0 Copyright (c) Steve Scherf et al.
# Submitted via: dBpowerAMP V4.0
#
DISCID=cb10a90e
DTITLE=Various Artist - Love Moments
DYEAR=1900
DGENRE=R&B
TTITLE0=Monet - Leave The Lights On
TTITLE1=Howard Hewett - A Love Of Your Own
TTITLE2=Ray Parker Jr. - Tonights The Night
TTITLE3=Harold Melvin - I Should Be Your Lover
TTITLE4=Azimuth - Vôo Sobre Horizonte
TTITLE5=The Isley Brothers - For The Love Of You
TTITLE6=T-Connection - Love Supreme
TTITLE7=Barry White - Play Your Game Baby
TTITLE8=Dionne Warwick - Don't Ever Take Your Love Away
TTITLE9=Linda Clifford - Please, Darling, Don't Say Goodbye
TTITLE10=Carrie Lucas - Sometimes A Love Goes Wrong
TTITLE11=Kool And The Gang - Cherish
TTITLE12=Aretha Franklin - Ever Changes Time
TTITLE13=GQ - I Do Love You
EXTD=
EXTT0=
EXTT1=
EXTT2=
EXTT3=
EXTT4=
EXTT5=
EXTT6=
EXTT7=
EXTT8=
EXTT9=
EXTT10=
EXTT11=
EXTT12=
EXTT13=
PLAYORDER=
